<svg width="17" height="15" viewBox="0 0 17 15" fill="none" xmlns="http://www.w3.org/2000/svg">
<path d="M14.6812 13.668C14.5944 13.8417 14.4785 13.9286 14.3627 13.9286C14.2758 13.9286 14.16 13.8996 14.0731 13.8707C13.9862 13.8417 13.8415 13.7549 13.6677 13.668C13.0306 13.2915 12.2198 12.944 11.2063 12.5676C10.772 12.4228 10.2218 12.2491 9.61366 12.0753C9.00555 11.9016 8.51327 11.7857 8.16578 11.6989L8.25265 13.6101C8.25265 13.8707 8.28161 14.1023 8.33952 14.2761C8.39744 14.4498 8.4264 14.5657 8.4264 14.6236C8.4264 14.7394 8.36848 14.8263 8.25265 14.8842C8.13682 14.9711 8.02099 15 7.90516 15C7.76037 15 7.6735 14.8842 7.61559 14.6815C7.61559 14.6525 7.61559 14.5657 7.58663 14.4209C7.55767 14.2761 7.55767 14.0444 7.55767 13.7549C7.55767 13.5522 7.52871 13.1757 7.49976 12.5386C7.49976 12.3359 7.4708 12.1332 7.4708 11.9305C7.4708 11.7278 7.4708 11.5541 7.4708 11.4093C7.44184 11.3803 7.41288 11.3514 7.35497 11.2935C7.29705 11.2645 7.2681 11.2066 7.23914 11.1197C7.21018 11.0328 7.18122 10.946 7.18122 10.8301C7.15227 10.7433 7.15227 10.6564 7.15227 10.5985C7.15227 10.5406 7.18122 10.4827 7.21018 10.4247C7.23914 10.3958 7.29705 10.3379 7.38393 10.28C7.35497 7.7896 7.32601 6.37068 7.32601 6.02319C7.32601 5.70466 7.32601 5.41509 7.35497 5.15447C7.35497 4.89385 7.38393 4.72011 7.38393 4.60428C7.32601 4.60428 7.15227 4.63323 6.83373 4.66219C6.54416 4.69115 6.28354 4.74906 6.10979 4.77802C5.47273 4.92281 4.98045 5.0676 4.66192 5.18343C4.31443 5.32821 3.99589 5.473 3.70632 5.61779C3.61945 5.6757 3.53257 5.73362 3.4457 5.76258C3.35883 5.79153 3.27196 5.82049 3.18508 5.82049C3.09821 5.82049 3.0403 5.79153 2.98238 5.70466C2.92447 5.61779 2.89551 5.53092 2.89551 5.41509C2.89551 5.21238 3.21404 5.00968 3.85111 4.77802C4.48817 4.54636 5.18315 4.34366 5.93605 4.16991C6.34145 4.08304 6.89165 4.02512 7.52871 3.93825C8.16578 3.88034 8.77389 3.85138 9.32408 3.85138C10.2797 3.85138 11.0905 3.96721 11.7565 4.16991C12.4225 4.37261 12.9438 4.69115 13.2623 5.0676C13.6098 5.44404 13.7835 5.87841 13.7546 6.37069C13.7546 7.00775 13.5808 7.52899 13.2044 7.96335C12.8569 8.39771 12.3646 8.80312 11.7855 9.12165C11.1774 9.44018 10.3955 9.81663 9.382 10.222C9.12138 10.3379 8.86076 10.4537 8.60014 10.5406C8.33952 10.6274 8.16578 10.7143 8.07891 10.7433C8.07891 10.8012 8.07891 10.8591 8.07891 10.8881C9.15034 11.1487 10.1928 11.4093 11.2353 11.7278L11.5538 11.8147C12.6252 12.1622 13.4361 12.4228 13.9573 12.5966C14.4785 12.7703 14.7391 12.944 14.7391 13.0599C14.826 13.3784 14.7681 13.5232 14.6812 13.668ZM12.6832 5.64675C12.3936 5.35717 11.9592 5.12551 11.3801 4.95177C10.8009 4.77802 10.1059 4.69115 9.26617 4.66219C8.65806 4.66219 8.25265 4.66219 8.10786 4.69115C8.10786 4.74906 8.07891 4.92281 8.07891 5.18343C8.04995 5.44404 8.04995 5.70466 8.04995 5.96528L8.07891 8.3398L8.13682 10.1931C8.22369 10.1931 8.39744 10.1352 8.65806 10.0483C8.91867 9.96142 9.15034 9.87455 9.32408 9.81663C10.5982 9.32435 11.5249 8.83208 12.1619 8.31084C12.799 7.81856 13.0886 7.21045 13.1175 6.54443C13.1175 6.2259 12.9727 5.90736 12.6832 5.64675Z" fill="#8C1812"/>
<path d="M5.03861 11.2066H0V1.44788H4.69112L6.05212 0H10.2799L11.6409 1.33205H16.2452V3.35907H15.666V1.9112H11.4093L10.0483 0.579151H6.31274L4.92278 2.02703H0.579151V10.6274H5.03861V11.2066Z" fill="#8C1812"/>
</svg>
